<mxfile host="app.diagrams.net" agent="Mozilla/5.0 (Windows NT 10.0; Win64; x64) AppleWebKit/537.36 (KHTML, like Gecko) Chrome/135.0.0.0 Safari/537.36" version="26.2.13">
  <diagram name="Page-1" id="mDKZ5Ab9DgkMJKis7Ek6">
    <mxGraphModel dx="1898" dy="1258" grid="1" gridSize="10" guides="1" tooltips="1" connect="1" arrows="1" fold="1" page="1" pageScale="1" pageWidth="850" pageHeight="1100" math="0" shadow="0">
      <root>
        <mxCell id="0" />
        <mxCell id="1" parent="0" />
        <mxCell id="KlsncDGiJ1McIXDxteIX-1" value="" style="rounded=0;whiteSpace=wrap;html=1;" parent="1" vertex="1">
          <mxGeometry x="240" y="70" width="480" height="650" as="geometry" />
        </mxCell>
        <mxCell id="KlsncDGiJ1McIXDxteIX-2" value="Libray management System" style="text;html=1;align=center;verticalAlign=middle;whiteSpace=wrap;rounded=0;fontStyle=1" parent="1" vertex="1">
          <mxGeometry x="390" y="80" width="180" height="30" as="geometry" />
        </mxCell>
        <mxCell id="KlsncDGiJ1McIXDxteIX-3" value="Reader" style="shape=umlActor;verticalLabelPosition=bottom;verticalAlign=top;html=1;outlineConnect=0;" parent="1" vertex="1">
          <mxGeometry x="80" y="60" width="20" height="40" as="geometry" />
        </mxCell>
        <mxCell id="KlsncDGiJ1McIXDxteIX-4" value="User" style="shape=umlActor;verticalLabelPosition=bottom;verticalAlign=top;html=1;outlineConnect=0;" parent="1" vertex="1">
          <mxGeometry x="170" y="130" width="30" height="60" as="geometry" />
        </mxCell>
        <mxCell id="KlsncDGiJ1McIXDxteIX-9" value="Librarian" style="shape=umlActor;verticalLabelPosition=bottom;verticalAlign=top;html=1;outlineConnect=0;" parent="1" vertex="1">
          <mxGeometry x="80" y="140" width="20" height="40" as="geometry" />
        </mxCell>
        <mxCell id="KlsncDGiJ1McIXDxteIX-10" value="Admin" style="shape=umlActor;verticalLabelPosition=bottom;verticalAlign=top;html=1;outlineConnect=0;" parent="1" vertex="1">
          <mxGeometry x="80" y="220" width="20" height="40" as="geometry" />
        </mxCell>
        <mxCell id="KlsncDGiJ1McIXDxteIX-11" value="" style="endArrow=none;html=1;rounded=0;entryX=0.5;entryY=0.5;entryDx=0;entryDy=0;entryPerimeter=0;exitX=0.5;exitY=0.5;exitDx=0;exitDy=0;exitPerimeter=0;startArrow=block;startFill=0;" parent="1" source="KlsncDGiJ1McIXDxteIX-4" target="KlsncDGiJ1McIXDxteIX-3" edge="1">
          <mxGeometry width="50" height="50" relative="1" as="geometry">
            <mxPoint x="170" y="280" as="sourcePoint" />
            <mxPoint x="220" y="230" as="targetPoint" />
          </mxGeometry>
        </mxCell>
        <mxCell id="KlsncDGiJ1McIXDxteIX-12" value="" style="endArrow=none;html=1;rounded=0;entryX=0.5;entryY=0.5;entryDx=0;entryDy=0;entryPerimeter=0;exitX=0.5;exitY=0.5;exitDx=0;exitDy=0;exitPerimeter=0;startArrow=block;startFill=0;" parent="1" source="KlsncDGiJ1McIXDxteIX-4" target="KlsncDGiJ1McIXDxteIX-9" edge="1">
          <mxGeometry width="50" height="50" relative="1" as="geometry">
            <mxPoint x="185" y="240" as="sourcePoint" />
            <mxPoint x="90" y="160" as="targetPoint" />
          </mxGeometry>
        </mxCell>
        <mxCell id="KlsncDGiJ1McIXDxteIX-13" value="" style="endArrow=none;html=1;rounded=0;entryX=0.5;entryY=0.5;entryDx=0;entryDy=0;entryPerimeter=0;exitX=0.5;exitY=0.5;exitDx=0;exitDy=0;exitPerimeter=0;startArrow=block;startFill=0;" parent="1" source="KlsncDGiJ1McIXDxteIX-4" target="KlsncDGiJ1McIXDxteIX-10" edge="1">
          <mxGeometry width="50" height="50" relative="1" as="geometry">
            <mxPoint x="195" y="170" as="sourcePoint" />
            <mxPoint x="100" y="170" as="targetPoint" />
          </mxGeometry>
        </mxCell>
        <mxCell id="KlsncDGiJ1McIXDxteIX-14" value="Đăng nhập" style="ellipse;whiteSpace=wrap;html=1;" parent="1" vertex="1">
          <mxGeometry x="300" y="130" width="85" height="60" as="geometry" />
        </mxCell>
        <mxCell id="KlsncDGiJ1McIXDxteIX-15" value="Tìm kiếm sách" style="ellipse;whiteSpace=wrap;html=1;" parent="1" vertex="1">
          <mxGeometry x="570" y="430" width="85" height="60" as="geometry" />
        </mxCell>
        <mxCell id="KlsncDGiJ1McIXDxteIX-16" value="Mượn sách" style="ellipse;whiteSpace=wrap;html=1;" parent="1" vertex="1">
          <mxGeometry x="570" y="350" width="85" height="60" as="geometry" />
        </mxCell>
        <mxCell id="KlsncDGiJ1McIXDxteIX-17" value="Trả sách" style="ellipse;whiteSpace=wrap;html=1;" parent="1" vertex="1">
          <mxGeometry x="570" y="270" width="85" height="60" as="geometry" />
        </mxCell>
        <mxCell id="KlsncDGiJ1McIXDxteIX-18" value="Gia hạn sách" style="ellipse;whiteSpace=wrap;html=1;" parent="1" vertex="1">
          <mxGeometry x="432.5" y="430" width="85" height="60" as="geometry" />
        </mxCell>
        <mxCell id="KlsncDGiJ1McIXDxteIX-21" value="" style="endArrow=open;dashed=1;html=1;rounded=0;exitX=0;exitY=0.5;exitDx=0;exitDy=0;entryX=0.5;entryY=1;entryDx=0;entryDy=0;endFill=0;" parent="1" source="KlsncDGiJ1McIXDxteIX-17" target="KlsncDGiJ1McIXDxteIX-14" edge="1">
          <mxGeometry width="50" height="50" relative="1" as="geometry">
            <mxPoint x="440" y="300" as="sourcePoint" />
            <mxPoint x="490" y="250" as="targetPoint" />
          </mxGeometry>
        </mxCell>
        <mxCell id="KlsncDGiJ1McIXDxteIX-22" value="" style="endArrow=open;dashed=1;html=1;rounded=0;exitX=0;exitY=0.5;exitDx=0;exitDy=0;entryX=0.5;entryY=1;entryDx=0;entryDy=0;endFill=0;" parent="1" source="KlsncDGiJ1McIXDxteIX-16" target="KlsncDGiJ1McIXDxteIX-14" edge="1">
          <mxGeometry width="50" height="50" relative="1" as="geometry">
            <mxPoint x="385" y="270" as="sourcePoint" />
            <mxPoint x="493" y="200" as="targetPoint" />
          </mxGeometry>
        </mxCell>
        <mxCell id="KlsncDGiJ1McIXDxteIX-23" value="&amp;lt;&amp;lt;include&amp;gt;&amp;gt;" style="text;html=1;align=center;verticalAlign=middle;whiteSpace=wrap;rounded=0;" parent="1" vertex="1">
          <mxGeometry x="445" y="210" width="60" height="30" as="geometry" />
        </mxCell>
        <mxCell id="KlsncDGiJ1McIXDxteIX-24" value="&amp;lt;&amp;lt;include&amp;gt;&amp;gt;" style="text;html=1;align=center;verticalAlign=middle;whiteSpace=wrap;rounded=0;" parent="1" vertex="1">
          <mxGeometry x="395" y="285" width="60" height="30" as="geometry" />
        </mxCell>
        <mxCell id="KlsncDGiJ1McIXDxteIX-26" value="" style="endArrow=open;dashed=1;html=1;rounded=0;exitX=1;exitY=0.5;exitDx=0;exitDy=0;entryX=0;entryY=0.5;entryDx=0;entryDy=0;endFill=0;" parent="1" source="KlsncDGiJ1McIXDxteIX-18" target="KlsncDGiJ1McIXDxteIX-16" edge="1">
          <mxGeometry width="50" height="50" relative="1" as="geometry">
            <mxPoint x="385" y="360" as="sourcePoint" />
            <mxPoint x="493" y="200" as="targetPoint" />
          </mxGeometry>
        </mxCell>
        <mxCell id="KlsncDGiJ1McIXDxteIX-27" value="&amp;lt;&amp;lt;extend&amp;gt;&amp;gt;" style="text;html=1;align=center;verticalAlign=middle;whiteSpace=wrap;rounded=0;" parent="1" vertex="1">
          <mxGeometry x="490" y="400" width="60" height="30" as="geometry" />
        </mxCell>
        <mxCell id="KlsncDGiJ1McIXDxteIX-30" value="Reader" style="shape=umlActor;verticalLabelPosition=bottom;verticalAlign=top;html=1;outlineConnect=0;" parent="1" vertex="1">
          <mxGeometry x="780" y="350" width="30" height="60" as="geometry" />
        </mxCell>
        <mxCell id="KlsncDGiJ1McIXDxteIX-31" value="" style="endArrow=none;html=1;rounded=0;exitX=0.5;exitY=0.5;exitDx=0;exitDy=0;exitPerimeter=0;entryX=1;entryY=0.5;entryDx=0;entryDy=0;" parent="1" source="KlsncDGiJ1McIXDxteIX-30" target="KlsncDGiJ1McIXDxteIX-17" edge="1">
          <mxGeometry width="50" height="50" relative="1" as="geometry">
            <mxPoint x="230" y="350" as="sourcePoint" />
            <mxPoint x="280" y="300" as="targetPoint" />
          </mxGeometry>
        </mxCell>
        <mxCell id="KlsncDGiJ1McIXDxteIX-33" value="" style="endArrow=none;html=1;rounded=0;exitX=0.5;exitY=0.5;exitDx=0;exitDy=0;exitPerimeter=0;entryX=1;entryY=0.5;entryDx=0;entryDy=0;" parent="1" source="KlsncDGiJ1McIXDxteIX-30" target="KlsncDGiJ1McIXDxteIX-16" edge="1">
          <mxGeometry width="50" height="50" relative="1" as="geometry">
            <mxPoint x="195" y="360" as="sourcePoint" />
            <mxPoint x="300" y="270" as="targetPoint" />
          </mxGeometry>
        </mxCell>
        <mxCell id="KlsncDGiJ1McIXDxteIX-34" value="" style="endArrow=none;html=1;rounded=0;exitX=0.5;exitY=0.5;exitDx=0;exitDy=0;exitPerimeter=0;entryX=1;entryY=0.5;entryDx=0;entryDy=0;" parent="1" source="KlsncDGiJ1McIXDxteIX-30" target="KlsncDGiJ1McIXDxteIX-15" edge="1">
          <mxGeometry width="50" height="50" relative="1" as="geometry">
            <mxPoint x="195" y="360" as="sourcePoint" />
            <mxPoint x="300" y="360" as="targetPoint" />
          </mxGeometry>
        </mxCell>
        <mxCell id="KlsncDGiJ1McIXDxteIX-35" value="" style="endArrow=none;html=1;rounded=0;exitX=0.5;exitY=0.5;exitDx=0;exitDy=0;exitPerimeter=0;entryX=0;entryY=0.5;entryDx=0;entryDy=0;" parent="1" source="KlsncDGiJ1McIXDxteIX-4" target="KlsncDGiJ1McIXDxteIX-14" edge="1">
          <mxGeometry width="50" height="50" relative="1" as="geometry">
            <mxPoint x="270" y="190" as="sourcePoint" />
            <mxPoint x="375" y="100" as="targetPoint" />
          </mxGeometry>
        </mxCell>
        <mxCell id="5Groz6LKvN2Q73MjLgdB-1" value="Xác nhận mượn sách" style="ellipse;whiteSpace=wrap;html=1;" vertex="1" parent="1">
          <mxGeometry x="300" y="350" width="85" height="60" as="geometry" />
        </mxCell>
        <mxCell id="5Groz6LKvN2Q73MjLgdB-2" value="Xác nhận trả sách" style="ellipse;whiteSpace=wrap;html=1;" vertex="1" parent="1">
          <mxGeometry x="570" y="130" width="85" height="60" as="geometry" />
        </mxCell>
        <mxCell id="5Groz6LKvN2Q73MjLgdB-3" value="Librarian" style="shape=umlActor;verticalLabelPosition=bottom;verticalAlign=top;html=1;outlineConnect=0;" vertex="1" parent="1">
          <mxGeometry x="780" y="130" width="30" height="60" as="geometry" />
        </mxCell>
        <mxCell id="5Groz6LKvN2Q73MjLgdB-5" value="Librarian" style="shape=umlActor;verticalLabelPosition=bottom;verticalAlign=top;html=1;outlineConnect=0;" vertex="1" parent="1">
          <mxGeometry x="170" y="430" width="30" height="60" as="geometry" />
        </mxCell>
        <mxCell id="5Groz6LKvN2Q73MjLgdB-6" value="" style="endArrow=none;html=1;rounded=0;exitX=0.5;exitY=0.5;exitDx=0;exitDy=0;exitPerimeter=0;entryX=1;entryY=0.5;entryDx=0;entryDy=0;" edge="1" parent="1" source="5Groz6LKvN2Q73MjLgdB-3" target="5Groz6LKvN2Q73MjLgdB-2">
          <mxGeometry width="50" height="50" relative="1" as="geometry">
            <mxPoint x="840" y="230" as="sourcePoint" />
            <mxPoint x="700" y="230" as="targetPoint" />
          </mxGeometry>
        </mxCell>
        <mxCell id="5Groz6LKvN2Q73MjLgdB-7" value="" style="endArrow=none;html=1;rounded=0;exitX=0;exitY=0.5;exitDx=0;exitDy=0;entryX=0.5;entryY=0.5;entryDx=0;entryDy=0;entryPerimeter=0;" edge="1" parent="1" source="5Groz6LKvN2Q73MjLgdB-1" target="5Groz6LKvN2Q73MjLgdB-5">
          <mxGeometry width="50" height="50" relative="1" as="geometry">
            <mxPoint x="350" y="320" as="sourcePoint" />
            <mxPoint x="210" y="320" as="targetPoint" />
          </mxGeometry>
        </mxCell>
        <mxCell id="5Groz6LKvN2Q73MjLgdB-8" value="" style="endArrow=open;dashed=1;html=1;rounded=0;exitX=1;exitY=0.5;exitDx=0;exitDy=0;endFill=0;entryX=0;entryY=0.5;entryDx=0;entryDy=0;" edge="1" parent="1" source="5Groz6LKvN2Q73MjLgdB-1" target="KlsncDGiJ1McIXDxteIX-16">
          <mxGeometry width="50" height="50" relative="1" as="geometry">
            <mxPoint x="580" y="390" as="sourcePoint" />
            <mxPoint x="560" y="380" as="targetPoint" />
          </mxGeometry>
        </mxCell>
        <mxCell id="5Groz6LKvN2Q73MjLgdB-9" value="&amp;lt;&amp;lt;include&amp;gt;&amp;gt;" style="text;html=1;align=center;verticalAlign=middle;whiteSpace=wrap;rounded=0;" vertex="1" parent="1">
          <mxGeometry x="420" y="355" width="60" height="30" as="geometry" />
        </mxCell>
        <mxCell id="5Groz6LKvN2Q73MjLgdB-10" value="" style="endArrow=open;dashed=1;html=1;rounded=0;exitX=0.5;exitY=1;exitDx=0;exitDy=0;entryX=0.5;entryY=0;entryDx=0;entryDy=0;endFill=0;" edge="1" parent="1" source="5Groz6LKvN2Q73MjLgdB-2" target="KlsncDGiJ1McIXDxteIX-17">
          <mxGeometry width="50" height="50" relative="1" as="geometry">
            <mxPoint x="580" y="310" as="sourcePoint" />
            <mxPoint x="353" y="200" as="targetPoint" />
          </mxGeometry>
        </mxCell>
        <mxCell id="5Groz6LKvN2Q73MjLgdB-12" value="&amp;lt;&amp;lt;include&amp;gt;&amp;gt;" style="text;html=1;align=center;verticalAlign=middle;whiteSpace=wrap;rounded=0;" vertex="1" parent="1">
          <mxGeometry x="620" y="210" width="60" height="30" as="geometry" />
        </mxCell>
        <mxCell id="5Groz6LKvN2Q73MjLgdB-14" value="Quản lý sách" style="ellipse;whiteSpace=wrap;html=1;" vertex="1" parent="1">
          <mxGeometry x="300" y="510" width="85" height="60" as="geometry" />
        </mxCell>
        <mxCell id="5Groz6LKvN2Q73MjLgdB-15" value="Quản lý tài khoản người dùng" style="ellipse;whiteSpace=wrap;html=1;" vertex="1" parent="1">
          <mxGeometry x="300" y="430" width="85" height="60" as="geometry" />
        </mxCell>
        <mxCell id="5Groz6LKvN2Q73MjLgdB-16" value="" style="endArrow=none;html=1;rounded=0;exitX=0;exitY=0.5;exitDx=0;exitDy=0;entryX=0.5;entryY=0.5;entryDx=0;entryDy=0;entryPerimeter=0;" edge="1" parent="1" source="5Groz6LKvN2Q73MjLgdB-15" target="5Groz6LKvN2Q73MjLgdB-5">
          <mxGeometry width="50" height="50" relative="1" as="geometry">
            <mxPoint x="310" y="390" as="sourcePoint" />
            <mxPoint x="195" y="470" as="targetPoint" />
          </mxGeometry>
        </mxCell>
        <mxCell id="5Groz6LKvN2Q73MjLgdB-17" value="" style="endArrow=none;html=1;rounded=0;exitX=0;exitY=0.5;exitDx=0;exitDy=0;entryX=0.5;entryY=0.5;entryDx=0;entryDy=0;entryPerimeter=0;" edge="1" parent="1" source="5Groz6LKvN2Q73MjLgdB-14" target="5Groz6LKvN2Q73MjLgdB-5">
          <mxGeometry width="50" height="50" relative="1" as="geometry">
            <mxPoint x="310" y="470" as="sourcePoint" />
            <mxPoint x="195" y="470" as="targetPoint" />
          </mxGeometry>
        </mxCell>
        <mxCell id="5Groz6LKvN2Q73MjLgdB-19" value="Thêm, xóa, sửa" style="shape=note;whiteSpace=wrap;html=1;backgroundOutline=1;darkOpacity=0.05;" vertex="1" parent="1">
          <mxGeometry x="80" y="510" width="100" height="75" as="geometry" />
        </mxCell>
        <mxCell id="5Groz6LKvN2Q73MjLgdB-20" value="" style="endArrow=none;html=1;rounded=0;entryX=0;entryY=0.5;entryDx=0;entryDy=0;exitX=0;exitY=0;exitDx=100;exitDy=30;exitPerimeter=0;" edge="1" parent="1" source="5Groz6LKvN2Q73MjLgdB-19" target="5Groz6LKvN2Q73MjLgdB-14">
          <mxGeometry width="50" height="50" relative="1" as="geometry">
            <mxPoint x="230" y="640" as="sourcePoint" />
            <mxPoint x="280" y="590" as="targetPoint" />
          </mxGeometry>
        </mxCell>
        <mxCell id="5Groz6LKvN2Q73MjLgdB-21" value="Admin" style="shape=umlActor;verticalLabelPosition=bottom;verticalAlign=top;html=1;outlineConnect=0;" vertex="1" parent="1">
          <mxGeometry x="770" y="650" width="30" height="60" as="geometry" />
        </mxCell>
        <mxCell id="5Groz6LKvN2Q73MjLgdB-22" value="Quản lý thủ thư" style="ellipse;whiteSpace=wrap;html=1;" vertex="1" parent="1">
          <mxGeometry x="570" y="520" width="85" height="60" as="geometry" />
        </mxCell>
        <mxCell id="5Groz6LKvN2Q73MjLgdB-23" value="Quản lý hệ thống" style="ellipse;whiteSpace=wrap;html=1;" vertex="1" parent="1">
          <mxGeometry x="432.5" y="580" width="85" height="60" as="geometry" />
        </mxCell>
        <mxCell id="5Groz6LKvN2Q73MjLgdB-24" value="Xem thống kê" style="ellipse;whiteSpace=wrap;html=1;" vertex="1" parent="1">
          <mxGeometry x="300" y="650" width="85" height="60" as="geometry" />
        </mxCell>
        <mxCell id="5Groz6LKvN2Q73MjLgdB-25" value="" style="endArrow=none;html=1;rounded=0;entryX=0.5;entryY=0.5;entryDx=0;entryDy=0;entryPerimeter=0;exitX=1;exitY=0.5;exitDx=0;exitDy=0;" edge="1" parent="1" source="5Groz6LKvN2Q73MjLgdB-22" target="5Groz6LKvN2Q73MjLgdB-21">
          <mxGeometry width="50" height="50" relative="1" as="geometry">
            <mxPoint x="700" y="640" as="sourcePoint" />
            <mxPoint x="750" y="590" as="targetPoint" />
          </mxGeometry>
        </mxCell>
        <mxCell id="5Groz6LKvN2Q73MjLgdB-26" value="" style="endArrow=none;html=1;rounded=0;entryX=0.5;entryY=0.5;entryDx=0;entryDy=0;entryPerimeter=0;exitX=1;exitY=0.5;exitDx=0;exitDy=0;" edge="1" parent="1" source="5Groz6LKvN2Q73MjLgdB-23" target="5Groz6LKvN2Q73MjLgdB-21">
          <mxGeometry width="50" height="50" relative="1" as="geometry">
            <mxPoint x="665" y="560" as="sourcePoint" />
            <mxPoint x="795" y="670" as="targetPoint" />
          </mxGeometry>
        </mxCell>
        <mxCell id="5Groz6LKvN2Q73MjLgdB-27" value="" style="endArrow=none;html=1;rounded=0;entryX=0.5;entryY=0.5;entryDx=0;entryDy=0;entryPerimeter=0;exitX=1;exitY=0.5;exitDx=0;exitDy=0;" edge="1" parent="1" source="5Groz6LKvN2Q73MjLgdB-24" target="5Groz6LKvN2Q73MjLgdB-21">
          <mxGeometry width="50" height="50" relative="1" as="geometry">
            <mxPoint x="527" y="620" as="sourcePoint" />
            <mxPoint x="795" y="670" as="targetPoint" />
          </mxGeometry>
        </mxCell>
      </root>
    </mxGraphModel>
  </diagram>
</mxfile>
